:SAMPLES-PER-SECOND 30
:FULLY-SPECIFIED
:DEGREES
765
root  64.9982 38.323 -3.07799 -5.95544 -88.3529 5.24677
RightUpLeg  -6.90743 -6.62964 2.14335
RightLeg  22.1161 6.70049 2.73419
RightFoot  -15.6013 -0.13215 -0.714359
RightToes  -2.32831e-009 0 -3.6325e-017
Spine  7.27292 1.7289 13.2816
Spine1  4.39562 3.71952 -3.40492
HEad  -5.13139 -35.6501 -4.86827
LeftShoulder1  -0.427565 4.61726 -32.2665
LeftArm  7.3851 12.5026 -41.2078
LeftForeArm  23.2972 -18.4927 -5.4356
LeftHand  -0.05829 11.389 0.0586046
RightShoulder  -0.893508 -6.03664 28.6962
RightArm  15.3136 12.3476 45.3779
RightForeArm  7.06876 18.4527 4.78063
RightHand  -0.295767 9.2051 -2.74608
LeftUpLeg  -20.4995 2.03673 1.3848
LeftLeg  53.8119 -3.88394 -5.25584
LeftFoot  -1.37308 0.438112 -4.981
LeftToes  8.91272e-011 -1.70619e-011 7.36378e-012
766
root  63.9559 38.4584 -3.04054 -39.4972 -88.9796 38.4194
RightUpLeg  -3.61288 -7.08265 1.07594
RightLeg  19.9499 8.18125 2.87761
RightFoot  -16.2373 -0.13488 -0.587054
RightToes  -2.32831e-009 0 -3.6325e-017
Spine  7.8563 2.47916 13.112
Spine1  3.74482 4.53625 -4.26589
HEad  -4.89589 -36.4249 -5.11865
LeftShoulder1  -0.383346 4.50119 -32.2998
LeftArm  -0.0228335 13.9024 -39.1755
LeftForeArm  28.4155 -14.4687 -6.7359
LeftHand  -0.131315 11.3157 -1.28788
RightShoulder  -0.850545 -5.9874 27.652
RightArm  16.2472 14.427 46.2345
RightForeArm  6.93912 22.2282 4.51582
RightHand  -0.233234 9.67024 -2.1944
LeftUpLeg  -21.9577 2.22959 1.25927
LeftLeg  46.0218 -3.96857 -3.96716
LeftFoot  -2.61605 0.454902 -5.75034
LeftToes  8.91272e-011 -1.70619e-011 7.36378e-012
767
root  62.9422 38.5788 -2.99656 -43.0154 -88.3427 41.6755
RightUpLeg  -0.0834695 -8.17306 -0.0534498
RightLeg  17.0748 9.14125 3.02519
RightFoot  -16.7315 -0.132741 -0.412997
RightToes  -2.32831e-009 0 -3.6325e-017
Spine  7.88497 2.2802 13.0802
Spine1  3.882 4.45116 -5.73374
HEad  -5.4064 -36.5604 -4.54076
LeftShoulder1  -0.385671 4.51851 -31.8723
LeftArm  -4.32487 15.2047 -37.4038
LeftForeArm  30.6268 -11.5764 -7.01953
LeftHand  -0.183519 11.7124 -2.1086
RightShoulder  -0.851334 -5.99704 27.5437
RightArm  15.9142 17.315 46.9644
RightForeArm  7.52189 25.2175 4.99347
RightHand  -0.416222 9.39878 -3.65291
LeftUpLeg  -22.7684 1.97702 1.16377
LeftLeg  36.173 -4.46019 -3.17889
LeftFoot  -2.11621 0.421115 -5.05237
LeftToes  8.91272e-011 -1.70619e-011 7.36378e-012
768
root  61.9223 38.617 -2.96598 -54.1523 -88.2587 53.0288
RightUpLeg  2.63813 -8.42811 -0.777171
RightLeg  14.6487 9.92825 2.91734
RightFoot  -17.2415 -0.132534 -0.309153
RightToes  -2.32831e-009 0 -3.6325e-017
Spine  7.94871 2.42221 12.3139
Spine1  3.49791 4.47788 -6.2991
HEad  -6.37274 -36.7905 -4.98811
LeftShoulder1  -0.395888 4.54693 -31.791
LeftArm  -5.65428 17.0864 -35.5851
LeftForeArm  31.3103 -10.02 -6.99942
LeftHand  -0.194929 11.5166 -2.38022
RightShoulder  -0.898385 -6.13294 27.5807
RightArm  15.5953 19.6013 47.3634
RightForeArm  9.02637 28.0584 5.57617
RightHand  -0.385263 9.76399 -3.3566
LeftUpLeg  -23.0459 2.02679 1.12623
LeftLeg  24.5519 -4.40406 -1.81961
LeftFoot  -1.2058 0.53211 -5.91859
LeftToes  8.91272e-011 -1.70619e-011 7.36378e-012
769
root  60.886 38.6244 -2.91827 -70.4613 -88.2626 69.2755
RightUpLeg  5.67824 -8.5761 -1.51861
RightLeg  12.1902 10.9059 2.65011
RightFoot  -17.7867 -0.10911 0.194204
RightToes  -2.32831e-009 0 -3.6325e-017
Spine  8.1464 2.72475 11.1094
Spine1  3.83063 4.63114 -6.06066
HEad  -7.24865 -36.8287 -4.8916
LeftShoulder1  -0.451699 4.68164 -32.1871
LeftArm  -5.77626 18.5664 -34.1379
LeftForeArm  32.3122 -9.33426 -7.00831
LeftHand  -0.247678 11.6366 -3.27582
RightShoulder  -0.84261 -6.05119 26.4734
RightArm  14.7067 21.2616 48.4194
RightForeArm  10.25 29.8915 5.94807
RightHand  -0.255518 10.5975 -2.25868
LeftUpLeg  -22.1873 2.46824 1.01701
LeftLeg  12.1983 -4.74936 -0.977841
LeftFoot  0.257489 0.633815 -6.24825
LeftToes  8.91272e-011 -1.70619e-011 7.36378e-012
770
root  59.7712 38.5525 -2.86745 -79.1022 -88.3553 77.9534
RightUpLeg  8.73411 -8.73923 -2.11719
RightLeg  9.79537 11.916 2.46845
RightFoot  -18.5591 -0.0696175 0.889179
RightToes  -2.32831e-009 0 -3.6325e-017
Spine  8.11348 2.86783 10.6693
Spine1  4.16234 5.00649 -7.25319
HEad  -7.8734 -36.8615 -3.75821
LeftShoulder1  -0.368662 4.49016 -31.2559
LeftArm  -5.94859 20.9457 -33.6589
LeftForeArm  32.7339 -9.48793 -6.78281
LeftHand  -0.22935 10.9265 -3.41614
RightShoulder  -0.884659 -6.11864 27.2483
RightArm  14.6038 22.1248 48.2041
RightForeArm  10.1269 31.4428 6.3375
RightHand  -0.328943 10.711 -2.78079
LeftUpLeg  -21.4658 2.53525 1.21007
LeftLeg  1.99082 -2.68681 -0.566082
LeftFoot  0.459158 0.732221 -7.13504
LeftToes  8.91272e-011 -1.70619e-011 7.36378e-012
771
root  58.5864 38.3862 -2.74879 -88.3645 -88.2165 86.8205
RightUpLeg  11.5507 -9.14039 -3.16518
RightLeg  9.20305 13.1359 2.54965
RightFoot  -19.7567 -0.056448 1.05407
RightToes  -2.32831e-009 0 -3.6325e-017
Spine  8.26881 3.03744 9.58434
Spine1  4.72648 5.25156 -7.42543
HEad  -8.2392 -37.1233 -2.93412
LeftShoulder1  -0.366949 4.48706 -31.1898
LeftArm  -5.82687 22.6211 -33.1224
LeftForeArm  32.6916 -9.76408 -6.65927
LeftHand  -0.213203 10.0106 -3.779
RightShoulder  -0.907174 -6.15629 27.6227
RightArm  14.563 22.369 48.138
RightForeArm  10.1312 31.9572 6.46781
RightHand  -0.324828 10.6466 -2.76001
LeftUpLeg  -20.9287 2.83309 0.891622
LeftLeg  -3.24523 1.36131 -1.16368
LeftFoot  -0.717252 0.762841 -8.13349
LeftToes  8.91272e-011 -1.70619e-011 7.36378e-012
772
root  57.2844 38.1135 -2.56892 -86.6751 -88.1146 85.036
RightUpLeg  13.5107 -9.39342 -4.01801
RightLeg  10.145 13.7673 2.6662
RightFoot  -21.1937 -0.0590477 0.983955
RightToes  -2.32831e-009 0 -3.6325e-017
Spine  8.07352 2.98117 8.94315
Spine1  4.67636 5.26629 -7.90854
HEad  -7.91759 -37.3254 -2.23171
LeftShoulder1  -0.414218 4.6099 -31.266
LeftArm  -5.26689 23.9399 -32.4929
LeftForeArm  32.1368 -10.0925 -6.70904
LeftHand  -0.212327 10.5546 -3.34067
RightShoulder  -0.89317 -6.07294 28.1752
RightArm  15.4958 21.7497 48.3877
RightForeArm  9.83752 31.2761 6.31407
RightHand  -0.321401 10.4827 -2.76012
LeftUpLeg  -21.7861 2.30952 0.140268
LeftLeg  -1.66204 5.04088 -1.27489
LeftFoot  -0.76131 0.655011 -7.03199
LeftToes  8.91272e-011 -1.70619e-011 7.36378e-012
